<svg xmlns="http://www.w3.org/2000/svg" viewBox="0 0 1000 650" preserveAspectRatio="xMidYMid slice">
  <defs><linearGradient id="g" x1="0" y1="0" x2="1" y2="1"><stop stop-color="#d8e4ef"/><stop offset="1" stop-color="#eef3f7"/></linearGradient></defs>
  <rect width="1000" height="650" fill="url(#g)"/>
  <rect x="80" y="170" width="150" height="420" fill="#b8c8d7"/>
  <rect x="250" y="80" width="220" height="510" fill="#d0d9e3"/>
  <rect x="500" y="135" width="170" height="455" fill="#a8b9c8"/>
  <rect x="700" y="210" width="210" height="380" fill="#c7d3de"/>
  <g fill="#173a63" opacity=".45">
    <rect x="105" y="210" width="28" height="40"/><rect x="150" y="210" width="28" height="40"/><rect x="105" y="280" width="28" height="40"/><rect x="150" y="280" width="28" height="40"/>
    <rect x="285" y="125" width="34" height="42"/><rect x="345" y="125" width="34" height="42"/><rect x="405" y="125" width="34" height="42"/><rect x="285" y="205" width="34" height="42"/><rect x="345" y="205" width="34" height="42"/><rect x="405" y="205" width="34" height="42"/>
    <rect x="535" y="175" width="36" height="45"/><rect x="600" y="175" width="36" height="45"/><rect x="535" y="255" width="36" height="45"/><rect x="600" y="255" width="36" height="45"/>
  </g>
  <rect y="590" width="1000" height="60" fill="#173a63"/>
  <rect x="130" y="545" width="260" height="45" rx="20" fill="#d43631"/>
  <rect x="600" y="552" width="230" height="38" rx="19" fill="#ffffff"/>
</svg>