<svg xmlns="http://www.w3.org/2000/svg" viewBox="0 0 1600 820" preserveAspectRatio="xMidYMid slice">
  <defs>
    <linearGradient id="sea" x1="0" y1="0" x2="1" y2="1"><stop stop-color="#0c2741"/><stop offset=".55" stop-color="#102f4d"/><stop offset="1" stop-color="#081927"/></linearGradient>
    <linearGradient id="red" x1="0" y1="0" x2="1" y2="1"><stop stop-color="#e13a36"/><stop offset="1" stop-color="#a70f16"/></linearGradient>
    <filter id="shadow" x="-20%" y="-20%" width="140%" height="140%"><feDropShadow dx="0" dy="18" stdDeviation="18" flood-opacity=".35"/></filter>
  </defs>
  <rect width="1600" height="820" fill="url(#sea)"/>
  <g opacity=".25" fill="none" stroke="#fff" stroke-width="2">
    <path d="M0 590c180-80 330 60 520-10s350-110 550-20 360 20 530-70"/>
    <path d="M0 650c220-60 390 70 620-20s410-90 600 10 260 25 380-35"/>
  </g>
  <g filter="url(#shadow)" transform="translate(740 265) rotate(5)">
    <path d="M-420 250h900l70-95H-500z" fill="url(#red)"/>
    <path d="M-500 155h980l-70-60h-850z" fill="#0a1b2c"/>
    <g stroke="#16263b" stroke-width="5">
      <rect x="-420" y="-5" width="70" height="55" fill="#dfc34d"/>
      <rect x="-345" y="-5" width="70" height="55" fill="#2f75bc"/>
      <rect x="-270" y="-5" width="70" height="55" fill="#d43732"/>
      <rect x="-195" y="-5" width="70" height="55" fill="#60a650"/>
      <rect x="-120" y="-5" width="70" height="55" fill="#f2b540"/>
      <rect x="-45" y="-5" width="70" height="55" fill="#244e8e"/>
      <rect x="30" y="-5" width="70" height="55" fill="#e3d451"/>
      <rect x="105" y="-5" width="70" height="55" fill="#d43732"/>
      <rect x="180" y="-5" width="70" height="55" fill="#2f75bc"/>
      <rect x="255" y="-5" width="70" height="55" fill="#60a650"/>
      <rect x="330" y="-5" width="70" height="55" fill="#f2b540"/>
      <rect x="-380" y="-65" width="70" height="55" fill="#2f75bc"/>
      <rect x="-305" y="-65" width="70" height="55" fill="#60a650"/>
      <rect x="-230" y="-65" width="70" height="55" fill="#f2b540"/>
      <rect x="-155" y="-65" width="70" height="55" fill="#d43732"/>
      <rect x="-80" y="-65" width="70" height="55" fill="#dfc34d"/>
      <rect x="-5" y="-65" width="70" height="55" fill="#244e8e"/>
      <rect x="70" y="-65" width="70" height="55" fill="#d43732"/>
      <rect x="145" y="-65" width="70" height="55" fill="#60a650"/>
      <rect x="220" y="-65" width="70" height="55" fill="#dfc34d"/>
      <rect x="295" y="-65" width="70" height="55" fill="#2f75bc"/>
    </g>
  </g>
</svg>